<svg width="40" height="34" viewBox="0 0 40 34" fill="none" xmlns="http://www.w3.org/2000/svg">
<path fill-rule="evenodd" clip-rule="evenodd" d="M39.9099 7.04363V17.4455C39.9111 17.463 39.9189 17.4765 39.9268 17.4899C39.9352 17.5042 39.9435 17.5185 39.9435 17.5373C39.9435 17.5548 39.9354 17.5683 39.9271 17.582C39.9191 17.5951 39.9111 17.6084 39.9099 17.6258V27.9667C39.9099 28.3992 39.5891 28.747 39.1963 28.747H36.815C36.422 28.747 36.1041 28.3992 36.1041 27.9667C36.1041 27.5352 36.422 27.1859 36.815 27.1859H38.4852V18.3161H32.0525C31.6594 18.3161 31.3414 17.9671 31.3414 17.5373V7.82209H25.6198V22.1412C25.6198 22.5704 25.3017 22.9221 24.9088 22.9221C24.5157 22.9221 24.1951 22.5704 24.1951 22.1412V7.04363V2.55245H1.66221V27.1859H3.3584C3.75134 27.1859 4.072 27.5352 4.072 27.9667C4.072 28.3992 3.75134 28.747 3.3584 28.747H0.951229C0.558117 28.747 0.237549 28.3992 0.237549 27.9667V1.77456C0.237549 1.34421 0.558117 0.996094 0.951229 0.996094H24.9088C25.3017 0.996094 25.6198 1.34421 25.6198 1.77456V6.26217H39.1963C39.5891 6.26217 39.9099 6.61325 39.9099 7.04363ZM32.7635 16.7558H38.4852V7.82209H32.7635V16.7558ZM24.1615 27.9691C24.1615 24.6507 26.628 21.9521 29.6608 21.9521C32.6884 21.9521 35.1524 24.6507 35.1524 27.9691C35.1524 31.2893 32.6884 33.9888 29.6608 33.9888C26.628 33.9888 24.1615 31.2893 24.1615 27.9691ZM25.586 27.9691C25.586 30.4294 27.4141 32.4292 29.6608 32.4292C31.9024 32.4292 33.7279 30.4294 33.7279 27.9691C33.7279 25.5103 31.9024 23.5114 29.6608 23.5114C27.4141 23.5114 25.586 25.5103 25.586 27.9691ZM5.02332 27.9667C5.02332 24.648 7.48742 21.9482 10.5202 21.9482C13.5504 21.9482 16.0171 24.648 16.0171 27.9667C16.0171 31.2878 13.5504 33.9858 10.5202 33.9858C7.48742 33.9858 5.02332 31.2878 5.02332 27.9667ZM6.44553 27.9667C6.44553 30.4265 8.2734 32.4265 10.5202 32.4265C12.7644 32.4265 14.5925 30.4265 14.5925 27.9667C14.5925 25.5079 12.7644 23.5105 10.5202 23.5105C8.2734 23.5105 6.44553 25.5079 6.44553 27.9667ZM17.6795 27.1859H22.499C22.892 27.1859 23.2099 27.5351 23.2099 27.9667C23.2099 28.3992 22.892 28.747 22.499 28.747H17.6795C17.2865 28.747 16.9686 28.3992 16.9686 27.9667C16.9686 27.5351 17.2865 27.1859 17.6795 27.1859Z" fill="url(#paint0_linear_0_174)"/>
<path fill-rule="evenodd" clip-rule="evenodd" d="M39.9099 7.04363V17.4455C39.9111 17.463 39.9189 17.4765 39.9268 17.4899C39.9352 17.5042 39.9435 17.5185 39.9435 17.5373C39.9435 17.5548 39.9354 17.5683 39.9271 17.582C39.9191 17.5951 39.9111 17.6084 39.9099 17.6258V27.9667C39.9099 28.3992 39.5891 28.747 39.1963 28.747H36.815C36.422 28.747 36.1041 28.3992 36.1041 27.9667C36.1041 27.5352 36.422 27.1859 36.815 27.1859H38.4852V18.3161H32.0525C31.6594 18.3161 31.3414 17.9671 31.3414 17.5373V7.82209H25.6198V22.1412C25.6198 22.5704 25.3017 22.9221 24.9088 22.9221C24.5157 22.9221 24.1951 22.5704 24.1951 22.1412V7.04363V2.55245H1.66221V27.1859H3.3584C3.75134 27.1859 4.072 27.5352 4.072 27.9667C4.072 28.3992 3.75134 28.747 3.3584 28.747H0.951229C0.558117 28.747 0.237549 28.3992 0.237549 27.9667V1.77456C0.237549 1.34421 0.558117 0.996094 0.951229 0.996094H24.9088C25.3017 0.996094 25.6198 1.34421 25.6198 1.77456V6.26217H39.1963C39.5891 6.26217 39.9099 6.61325 39.9099 7.04363ZM32.7635 16.7558H38.4852V7.82209H32.7635V16.7558ZM24.1615 27.9691C24.1615 24.6507 26.628 21.9521 29.6608 21.9521C32.6884 21.9521 35.1524 24.6507 35.1524 27.9691C35.1524 31.2893 32.6884 33.9888 29.6608 33.9888C26.628 33.9888 24.1615 31.2893 24.1615 27.9691ZM25.586 27.9691C25.586 30.4294 27.4141 32.4292 29.6608 32.4292C31.9024 32.4292 33.7279 30.4294 33.7279 27.9691C33.7279 25.5103 31.9024 23.5114 29.6608 23.5114C27.4141 23.5114 25.586 25.5103 25.586 27.9691ZM5.02332 27.9667C5.02332 24.648 7.48742 21.9482 10.5202 21.9482C13.5504 21.9482 16.0171 24.648 16.0171 27.9667C16.0171 31.2878 13.5504 33.9858 10.5202 33.9858C7.48742 33.9858 5.02332 31.2878 5.02332 27.9667ZM6.44553 27.9667C6.44553 30.4265 8.2734 32.4265 10.5202 32.4265C12.7644 32.4265 14.5925 30.4265 14.5925 27.9667C14.5925 25.5079 12.7644 23.5105 10.5202 23.5105C8.2734 23.5105 6.44553 25.5079 6.44553 27.9667ZM17.6795 27.1859H22.499C22.892 27.1859 23.2099 27.5351 23.2099 27.9667C23.2099 28.3992 22.892 28.747 22.499 28.747H17.6795C17.2865 28.747 16.9686 28.3992 16.9686 27.9667C16.9686 27.5351 17.2865 27.1859 17.6795 27.1859Z" fill="#FF3B4A"/>
<defs>
<linearGradient id="paint0_linear_0_174" x1="15.7746" y1="-11.9141" x2="-8.53903" y2="25.4749" gradientUnits="userSpaceOnUse">
<stop stop-color="white"/>
<stop offset="1" stop-color="white"/>
</linearGradient>
</defs>
</svg>
