<svg width="36" height="38" viewBox="0 0 36 38" fill="none" xmlns="http://www.w3.org/2000/svg">
<path fill-rule="evenodd" clip-rule="evenodd" d="M35.8645 13.0666C34.9242 10.2529 33.5355 7.71028 31.7337 5.50804C29.9428 3.31948 27.7985 1.54644 25.3581 0.238436C25.0837 0.0925163 24.7548 0.144316 24.5293 0.376956L8.85397 16.3386L7.04394 18.182C6.94614 18.2691 6.86189 18.3854 6.81024 18.5266C6.80222 18.5473 6.79397 18.5751 6.78569 18.5997L2.57071 30.8096L0.771709 36.0262C0.66841 36.3213 0.728229 36.6525 0.918527 36.889C1.06237 37.0652 1.26362 37.1581 1.47003 37.1581C1.53806 37.1581 1.60872 37.1489 1.67671 37.125L6.49767 35.6008L17.8357 32.0137C17.9064 31.9921 17.9771 31.9568 18.0423 31.9107C18.0776 31.8831 18.1129 31.853 18.1454 31.8228L19.9963 29.9376L35.6688 13.975C35.8944 13.7454 35.9706 13.3848 35.8645 13.0666ZM3.66868 32.273C3.6985 32.2949 3.73388 32.3079 3.76396 32.3254C4.08444 32.55 4.38346 32.7981 4.63071 33.1041C4.87801 33.4066 5.07372 33.7595 5.24494 34.1339C5.26406 34.1676 5.27204 34.2097 5.28563 34.2473L2.70661 35.0645L3.66868 32.273ZM17.2624 30.4585L6.76404 33.7799C6.73415 33.7077 6.68258 33.6535 6.64998 33.5828C6.40799 32.9958 6.11726 32.4435 5.73677 31.9767C5.35362 31.5111 4.88617 31.1411 4.38346 30.817C4.32093 30.7764 4.28287 30.7136 4.22034 30.6772L8.1392 19.3258L9.31317 18.1368L10.2617 19.2932L18.4308 29.2683L17.2624 30.4585ZM19.5369 28.1412L17.1644 25.2451L29.6249 12.5617C29.7852 12.3947 29.8666 12.1695 29.8666 11.9398C29.8666 11.7426 29.8042 11.5399 29.671 11.3803C29.3938 11.04 28.9182 11.0178 28.6137 11.3274L16.1535 24.0117L15.667 23.4144L13.8 21.1302L26.255 8.44732C26.4179 8.2792 26.4996 8.05512 26.4996 7.82484C26.4996 7.62768 26.4342 7.42552 26.3039 7.2648C26.0239 6.9262 25.5484 6.90516 25.244 7.213L12.7863 19.8991L10.4192 17.0054L25.1598 1.9928C27.2388 3.18004 29.0785 4.737 30.6276 6.63788C32.1875 8.54024 33.4104 10.722 34.2801 13.1276L19.5369 28.1412Z" fill="url(#paint0_linear_0_147)"/>
<path fill-rule="evenodd" clip-rule="evenodd" d="M35.8645 13.0666C34.9242 10.2529 33.5355 7.71028 31.7337 5.50804C29.9428 3.31948 27.7985 1.54644 25.3581 0.238436C25.0837 0.0925163 24.7548 0.144316 24.5293 0.376956L8.85397 16.3386L7.04394 18.182C6.94614 18.2691 6.86189 18.3854 6.81024 18.5266C6.80222 18.5473 6.79397 18.5751 6.78569 18.5997L2.57071 30.8096L0.771709 36.0262C0.66841 36.3213 0.728229 36.6525 0.918527 36.889C1.06237 37.0652 1.26362 37.1581 1.47003 37.1581C1.53806 37.1581 1.60872 37.1489 1.67671 37.125L6.49767 35.6008L17.8357 32.0137C17.9064 31.9921 17.9771 31.9568 18.0423 31.9107C18.0776 31.8831 18.1129 31.853 18.1454 31.8228L19.9963 29.9376L35.6688 13.975C35.8944 13.7454 35.9706 13.3848 35.8645 13.0666ZM3.66868 32.273C3.6985 32.2949 3.73388 32.3079 3.76396 32.3254C4.08444 32.55 4.38346 32.7981 4.63071 33.1041C4.87801 33.4066 5.07372 33.7595 5.24494 34.1339C5.26406 34.1676 5.27204 34.2097 5.28563 34.2473L2.70661 35.0645L3.66868 32.273ZM17.2624 30.4585L6.76404 33.7799C6.73415 33.7077 6.68258 33.6535 6.64998 33.5828C6.40799 32.9958 6.11726 32.4435 5.73677 31.9767C5.35362 31.5111 4.88617 31.1411 4.38346 30.817C4.32093 30.7764 4.28287 30.7136 4.22034 30.6772L8.1392 19.3258L9.31317 18.1368L10.2617 19.2932L18.4308 29.2683L17.2624 30.4585ZM19.5369 28.1412L17.1644 25.2451L29.6249 12.5617C29.7852 12.3947 29.8666 12.1695 29.8666 11.9398C29.8666 11.7426 29.8042 11.5399 29.671 11.3803C29.3938 11.04 28.9182 11.0178 28.6137 11.3274L16.1535 24.0117L15.667 23.4144L13.8 21.1302L26.255 8.44732C26.4179 8.2792 26.4996 8.05512 26.4996 7.82484C26.4996 7.62768 26.4342 7.42552 26.3039 7.2648C26.0239 6.9262 25.5484 6.90516 25.244 7.213L12.7863 19.8991L10.4192 17.0054L25.1598 1.9928C27.2388 3.18004 29.0785 4.737 30.6276 6.63788C32.1875 8.54024 33.4104 10.722 34.2801 13.1276L19.5369 28.1412Z" fill="#FF3B4A"/>
<defs>
<linearGradient id="paint0_linear_0_147" x1="17.4787" y1="-17.4628" x2="-17.8025" y2="17.7691" gradientUnits="userSpaceOnUse">
<stop stop-color="white"/>
<stop offset="1" stop-color="white"/>
</linearGradient>
</defs>
</svg>
