<svg width="41" height="34" viewBox="0 0 41 34" fill="none" xmlns="http://www.w3.org/2000/svg">
<path fill-rule="evenodd" clip-rule="evenodd" d="M40.5369 10.4461C40.5369 10.4142 40.5106 10.3994 40.5052 10.368C40.4974 10.2991 40.5106 10.2289 40.4816 10.1629L36.3657 0.466049C36.2525 0.201413 35.9896 0.0264893 35.6977 0.0264893H5.32341C5.03139 0.0264893 4.76853 0.201413 4.65527 0.466049L0.536604 10.1629C0.507675 10.2289 0.520821 10.2991 0.510313 10.368C0.507675 10.3994 0.481384 10.4142 0.481384 10.4461C0.481384 10.4604 0.497256 10.4719 0.497256 10.4882C0.507675 10.6463 0.552387 10.7972 0.660321 10.9221L19.9648 32.7548C19.9805 32.7741 20.0095 32.7661 20.0252 32.7856C20.0778 32.8318 20.12 32.8738 20.1831 32.9076C20.1962 32.9132 20.1988 32.936 20.2172 32.9416C20.3119 32.9816 20.4118 33.002 20.5066 33.002C20.6038 33.002 20.7038 32.9816 20.7985 32.9416C20.8168 32.936 20.8195 32.9132 20.8327 32.9046C20.8957 32.8738 20.9378 32.8318 20.9878 32.7856C21.0062 32.7661 21.0352 32.7741 21.051 32.7548L40.3554 10.9221C40.4633 10.7972 40.5106 10.6463 40.5211 10.4882C40.5211 10.4719 40.5369 10.4604 40.5369 10.4461ZM25.4327 1.46948L28.9832 9.72511H12.0352L15.5884 1.46948H25.4327ZM28.9726 11.1672L20.5066 30.4745L12.0455 11.1672H28.9726ZM10.4623 11.1672L17.9869 28.3383L2.80633 11.1672H10.4623ZM30.556 11.1672H38.2092L23.0286 28.3353L30.556 11.1672ZM38.7221 9.72511H30.5585L27.008 1.46948H35.2162L38.7221 9.72511ZM5.80205 1.46948H14.0156L10.4623 9.72511H2.29603L5.80205 1.46948Z" fill="url(#paint0_linear_0_157)"/>
<path fill-rule="evenodd" clip-rule="evenodd" d="M40.5369 10.4461C40.5369 10.4142 40.5106 10.3994 40.5052 10.368C40.4974 10.2991 40.5106 10.2289 40.4816 10.1629L36.3657 0.466049C36.2525 0.201413 35.9896 0.0264893 35.6977 0.0264893H5.32341C5.03139 0.0264893 4.76853 0.201413 4.65527 0.466049L0.536604 10.1629C0.507675 10.2289 0.520821 10.2991 0.510313 10.368C0.507675 10.3994 0.481384 10.4142 0.481384 10.4461C0.481384 10.4604 0.497256 10.4719 0.497256 10.4882C0.507675 10.6463 0.552387 10.7972 0.660321 10.9221L19.9648 32.7548C19.9805 32.7741 20.0095 32.7661 20.0252 32.7856C20.0778 32.8318 20.12 32.8738 20.1831 32.9076C20.1962 32.9132 20.1988 32.936 20.2172 32.9416C20.3119 32.9816 20.4118 33.002 20.5066 33.002C20.6038 33.002 20.7038 32.9816 20.7985 32.9416C20.8168 32.936 20.8195 32.9132 20.8327 32.9046C20.8957 32.8738 20.9378 32.8318 20.9878 32.7856C21.0062 32.7661 21.0352 32.7741 21.051 32.7548L40.3554 10.9221C40.4633 10.7972 40.5106 10.6463 40.5211 10.4882C40.5211 10.4719 40.5369 10.4604 40.5369 10.4461ZM25.4327 1.46948L28.9832 9.72511H12.0352L15.5884 1.46948H25.4327ZM28.9726 11.1672L20.5066 30.4745L12.0455 11.1672H28.9726ZM10.4623 11.1672L17.9869 28.3383L2.80633 11.1672H10.4623ZM30.556 11.1672H38.2092L23.0286 28.3353L30.556 11.1672ZM38.7221 9.72511H30.5585L27.008 1.46948H35.2162L38.7221 9.72511ZM5.80205 1.46948H14.0156L10.4623 9.72511H2.29603L5.80205 1.46948Z" fill="#FF3B4A"/>
<defs>
<linearGradient id="paint0_linear_0_157" x1="16.8677" y1="-13.4635" x2="-8.63959" y2="24.4057" gradientUnits="userSpaceOnUse">
<stop stop-color="white"/>
<stop offset="1" stop-color="white"/>
</linearGradient>
</defs>
</svg>
